<svg width="19" height="14" viewBox="0 0 19 14" fill="none" xmlns="http://www.w3.org/2000/svg">
<path fill-rule="evenodd" clip-rule="evenodd" d="M9.5696 2.90093C12.2755 2.90104 14.878 3.87865 16.8391 5.6317C16.9868 5.76704 17.2228 5.76533 17.3683 5.62787L18.7799 4.28832C18.8536 4.2186 18.8946 4.12416 18.894 4.0259C18.8934 3.92763 18.8512 3.83365 18.7767 3.76475C13.6294 -0.873405 5.50898 -0.873405 0.361704 3.76475C0.287142 3.8336 0.244837 3.92756 0.244149 4.02582C0.243462 4.12408 0.284449 4.21855 0.358041 4.28832L1.7701 5.62787C1.91545 5.76554 2.15168 5.76725 2.29926 5.6317C4.26062 3.87853 6.86339 2.90092 9.5696 2.90093ZM9.56854 7.37489C11.0453 7.3748 12.4693 7.91735 13.564 8.89713C13.712 9.03618 13.9453 9.03317 14.0896 8.89034L15.4901 7.49158C15.5639 7.41821 15.6048 7.31868 15.6037 7.21526C15.6027 7.11183 15.5597 7.01315 15.4845 6.94127C12.1511 3.87635 6.98886 3.87635 3.65545 6.94127C3.58015 7.01314 3.53719 7.11188 3.5362 7.21534C3.53522 7.3188 3.57628 7.41832 3.65019 7.49158L5.05033 8.89034C5.19466 9.03317 5.42789 9.03618 5.57594 8.89713C6.66986 7.918 8.09278 7.37549 9.56854 7.37489ZM12.3115 10.3372C12.3135 10.4489 12.2732 10.5566 12.2 10.6348L9.83182 13.2374C9.7624 13.3138 9.66776 13.3569 9.569 13.3569C9.47025 13.3569 9.3756 13.3138 9.30618 13.2374L6.9376 10.6348C6.86443 10.5565 6.82418 10.4488 6.82635 10.3371C6.82852 10.2254 6.87292 10.1196 6.94906 10.0448C8.46147 8.65175 10.6765 8.65175 12.1889 10.0448C12.265 10.1197 12.3094 10.2255 12.3115 10.3372Z" fill="white"/>
</svg>
