<svg width="22" height="14" viewBox="0 0 22 14" fill="none" xmlns="http://www.w3.org/2000/svg">
<path fill-rule="evenodd" clip-rule="evenodd" d="M21.0863 1.39347C21.0863 0.722308 20.5667 0.178223 19.9257 0.178223H18.7652C18.1243 0.178223 17.6047 0.722308 17.6047 1.39347V11.9256C17.6047 12.5968 18.1243 13.1409 18.7652 13.1409H19.9257C20.5667 13.1409 21.0863 12.5968 21.0863 11.9256V1.39347ZM12.9985 2.771H14.159C14.7999 2.771 15.3195 3.32814 15.3195 4.01541V11.8967C15.3195 12.584 14.7999 13.1411 14.159 13.1411H12.9985C12.3575 13.1411 11.838 12.584 11.838 11.8967V4.01541C11.838 3.32814 12.3575 2.771 12.9985 2.771ZM8.28406 5.5791H7.12355C6.48261 5.5791 5.96303 6.14334 5.96303 6.83936V11.8804C5.96303 12.5764 6.48261 13.1407 7.12355 13.1407H8.28406C8.925 13.1407 9.44458 12.5764 9.44458 11.8804V6.83936C9.44458 6.14334 8.925 5.5791 8.28406 5.5791ZM2.51733 8.17188H1.35681C0.715871 8.17188 0.196289 8.72805 0.196289 9.41413V11.8986C0.196289 12.5847 0.715871 13.1409 1.35681 13.1409H2.51733C3.15826 13.1409 3.67784 12.5847 3.67784 11.8986V9.41413C3.67784 8.72805 3.15826 8.17188 2.51733 8.17188Z" fill="white"/>
</svg>
