<svg width="37" height="38" viewBox="0 0 37 38" fill="none" xmlns="http://www.w3.org/2000/svg">
<path d="M17.6284 1.04967C18.0107 0.369964 18.9893 0.369964 19.3716 1.04967L20.2904 2.68321C20.6067 3.24557 21.3648 3.36565 21.8394 2.92856L23.218 1.65888C23.7916 1.13058 24.7224 1.43299 24.8759 2.19756L25.2449 4.03507C25.3719 4.66764 26.0559 5.01613 26.6423 4.74709L28.3458 3.96556C29.0546 3.64038 29.8463 4.21559 29.7561 4.99019L29.5392 6.8518C29.4645 7.49266 30.0073 8.03545 30.6482 7.96079L32.5098 7.74392C33.2844 7.65368 33.8596 8.44539 33.5344 9.1542L32.7529 10.8577C32.4839 11.4441 32.8324 12.1281 33.4649 12.2551L35.3024 12.6241C36.067 12.7776 36.3694 13.7084 35.8411 14.282L34.5714 15.6606C34.1343 16.1352 34.2544 16.8933 34.8168 17.2096L36.4503 18.1284C37.13 18.5107 37.13 19.4893 36.4503 19.8716L34.8168 20.7904C34.2544 21.1067 34.1343 21.8648 34.5714 22.3394L35.8411 23.718C36.3694 24.2916 36.067 25.2224 35.3024 25.3759L33.4649 25.7449C32.8324 25.8719 32.4839 26.5559 32.7529 27.1423L33.5344 28.8458C33.8596 29.5546 33.2844 30.3463 32.5098 30.2561L30.6482 30.0392C30.0073 29.9645 29.4645 30.5073 29.5392 31.1482L29.7561 33.0098C29.8463 33.7844 29.0546 34.3596 28.3458 34.0344L26.6423 33.2529C26.0559 32.9839 25.3719 33.3324 25.2449 33.9649L24.8759 35.8024C24.7224 36.567 23.7916 36.8694 23.218 36.3411L21.8394 35.0714C21.3648 34.6343 20.6067 34.7544 20.2904 35.3168L19.3716 36.9503C18.9893 37.63 18.0107 37.63 17.6284 36.9503L16.7096 35.3168C16.3933 34.7544 15.6352 34.6343 15.1606 35.0714L13.782 36.3411C13.2084 36.8694 12.2776 36.567 12.1241 35.8024L11.7551 33.9649C11.6281 33.3324 10.9441 32.9839 10.3577 33.2529L8.6542 34.0344C7.94539 34.3596 7.15368 33.7844 7.24392 33.0098L7.46079 31.1482C7.53545 30.5073 6.99266 29.9645 6.3518 30.0392L4.49019 30.2561C3.71559 30.3463 3.14038 29.5546 3.46556 28.8458L4.24709 27.1423C4.51613 26.5559 4.16764 25.8719 3.53507 25.7449L1.69756 25.3759C0.932985 25.2224 0.630579 24.2916 1.15888 23.718L2.42856 22.3394C2.86565 21.8648 2.74557 21.1067 2.18321 20.7904L0.549667 19.8716C-0.130036 19.4893 -0.130036 18.5107 0.549667 18.1284L2.18321 17.2096C2.74557 16.8933 2.86565 16.1352 2.42856 15.6606L1.15888 14.282C0.630578 13.7084 0.932985 12.7776 1.69756 12.6241L3.53507 12.2551C4.16764 12.1281 4.51613 11.4441 4.24709 10.8577L3.46556 9.1542C3.14038 8.44539 3.71559 7.65368 4.49019 7.74392L6.3518 7.96079C6.99266 8.03545 7.53545 7.49266 7.46079 6.8518L7.24392 4.99019C7.15368 4.21559 7.94539 3.64038 8.6542 3.96556L10.3577 4.74709C10.9441 5.01613 11.6281 4.66764 11.7551 4.03507L12.1241 2.19756C12.2776 1.43299 13.2084 1.13058 13.782 1.65888L15.1606 2.92856C15.6352 3.36565 16.3933 3.24557 16.7096 2.68321L17.6284 1.04967Z" fill="url(#paint0_linear_184_156)"/>
<defs>
<linearGradient id="paint0_linear_184_156" x1="5.5" y1="7" x2="29" y2="24.5" gradientUnits="userSpaceOnUse">
<stop stop-color="#4EB2FF"/>
<stop offset="1" stop-color="#9747FF"/>
</linearGradient>
</defs>
</svg>
